<svg xmlns="http://www.w3.org/2000/svg" viewBox="0 0 100 100">
  <g transform="translate(50,50)">
    <ellipse cx="0" cy="-28" rx="5.5" ry="16" fill="#4a4a62" opacity="0.90" transform="rotate(0)"/>
    <ellipse cx="0" cy="-28" rx="5.5" ry="16" fill="#4a4a62" opacity="0.90" transform="rotate(24)"/>
    <ellipse cx="0" cy="-28" rx="5.5" ry="16" fill="#4a4a62" opacity="0.90" transform="rotate(48)"/>
    <ellipse cx="0" cy="-28" rx="5.5" ry="16" fill="#4a4a62" opacity="0.90" transform="rotate(72)"/>
    <ellipse cx="0" cy="-28" rx="5.5" ry="16" fill="#4a4a62" opacity="0.90" transform="rotate(96)"/>
    <ellipse cx="0" cy="-28" rx="5.5" ry="16" fill="#4a4a62" opacity="0.90" transform="rotate(120)"/>
    <ellipse cx="0" cy="-28" rx="5.5" ry="16" fill="#4a4a62" opacity="0.90" transform="rotate(144)"/>
    <ellipse cx="0" cy="-28" rx="5.5" ry="16" fill="#4a4a62" opacity="0.90" transform="rotate(168)"/>
    <ellipse cx="0" cy="-28" rx="5.5" ry="16" fill="#4a4a62" opacity="0.90" transform="rotate(192)"/>
    <ellipse cx="0" cy="-28" rx="5.5" ry="16" fill="#4a4a62" opacity="0.90" transform="rotate(216)"/>
    <ellipse cx="0" cy="-28" rx="5.5" ry="16" fill="#4a4a62" opacity="0.90" transform="rotate(240)"/>
    <ellipse cx="0" cy="-28" rx="5.5" ry="16" fill="#4a4a62" opacity="0.90" transform="rotate(264)"/>
    <ellipse cx="0" cy="-28" rx="5.5" ry="16" fill="#4a4a62" opacity="0.90" transform="rotate(288)"/>
    <ellipse cx="0" cy="-28" rx="5.5" ry="16" fill="#4a4a62" opacity="0.90" transform="rotate(312)"/>
    <ellipse cx="0" cy="-28" rx="5.5" ry="16" fill="#4a4a62" opacity="0.90" transform="rotate(336)"/>
    <circle cx="0" cy="0" r="12" fill="#35354f"/>
    <text x="0" y="5" text-anchor="middle" font-family="Georgia, serif" font-size="14" font-weight="700" fill="white">S</text>
  </g>
</svg>
